<?xml version="1.0" standalone="no"?>
<!DOCTYPE svg PUBLIC "-//W3C//DTD SVG 20010904//EN"
 "http://www.w3.org/TR/2001/REC-SVG-20010904/DTD/svg10.dtd">
<svg version="1.0" xmlns="http://www.w3.org/2000/svg"
 width="500.000000pt" height="500.000000pt" viewBox="0 0 500.000000 500.000000"
 preserveAspectRatio="xMidYMid meet">

<g transform="translate(0.000000,500.000000) scale(0.100000,-0.100000)"
fill="#000000" stroke="none">
<path d="M1856 3609 c-12 -35 -83 -397 -91 -464 -9 -69 -16 -88 -39 -110 -16
-15 -25 -37 -30 -78 -8 -71 4 -97 43 -97 49 0 101 93 101 183 0 19 5 59 12 87
10 43 9 53 -3 61 -12 7 -11 9 3 9 19 0 24 14 38 92 6 29 18 95 29 146 17 87
21 156 9 167 -2 3 -19 8 -36 11 -22 5 -33 2 -36 -7z"/>
<path d="M4117 3494 c6 -68 11 -77 12 -24 0 25 -3 51 -8 59 -5 8 -7 -5 -4 -35z"/>
<path d="M4148 3353 c-3 -12 -16 -23 -29 -26 -14 -2 -8 -4 14 -4 39 0 40 1 28
31 -7 19 -8 19 -13 -1z"/>
<path d="M878 3333 c6 -2 18 -2 25 0 6 3 1 5 -13 5 -14 0 -19 -2 -12 -5z"/>
<path d="M3097 3233 c-15 -14 -6 -19 28 -15 19 2 38 8 41 13 6 10 -59 12 -69
2z"/>
<path d="M797 3209 c-8 -13 -17 -54 -20 -91 -4 -59 -2 -69 17 -87 18 -17 25
-18 45 -8 30 15 29 30 -1 37 -25 6 -26 10 -14 93 10 68 -3 94 -27 56z m0 -91
c-3 -8 -6 -5 -6 6 -1 11 2 17 5 13 3 -3 4 -12 1 -19z"/>
<path d="M3084 2968 c3 -13 6 -30 6 -39 0 -40 93 -27 104 13 4 19 1 20 -35 15
-34 -4 -39 -2 -39 14 0 13 -7 19 -21 19 -17 0 -20 -4 -15 -22z"/>
<path d="M1895 2889 c-85 -31 -124 -55 -62 -38 20 5 49 16 64 24 15 8 35 15
43 15 8 0 24 7 34 15 28 21 12 18 -79 -16z"/>
<path d="M2075 2870 c17 -98 27 -148 60 -290 20 -85 43 -186 51 -225 21 -98
25 -102 18 -15 -3 41 -28 165 -55 275 -50 203 -85 327 -74 255z"/>
<path d="M1786 2768 c-12 -130 -18 -459 -10 -535 l9 -78 5 90 c7 123 12 585 7
585 -3 0 -7 -28 -11 -62z"/>
<path d="M1943 2615 c2 -133 5 -160 17 -162 8 -2 21 1 29 6 12 8 11 29 -9 143
-13 73 -27 142 -32 153 -4 11 -7 -50 -5 -140z"/>
<path d="M1983 2348 l-33 -9 0 -74 c0 -46 -4 -75 -11 -75 -5 0 -29 -8 -52 -19
-23 -10 -49 -21 -57 -25 -8 -3 1 -4 20 -1 55 8 104 38 119 73 17 37 31 40 49
12 7 -11 16 -20 20 -20 10 0 -6 132 -16 141 -4 3 -22 2 -39 -3z"/>
<path d="M2131 2234 c-29 -14 -51 -27 -49 -30 5 -5 82 27 108 45 27 19 -3 11
-59 -15z"/>
</g>
</svg>
